<svg width="12" height="12" viewBox="0 0 12 12" fill="none" xmlns="http://www.w3.org/2000/svg">
<path d="M11.6546 2.05106C12.1235 1.58214 12.1235 0.820611 11.6546 0.351691C11.1856 -0.11723 10.4241 -0.11723 9.95519 0.351691L6.005 4.30563L2.05106 0.355442C1.58214 -0.113479 0.820611 -0.113479 0.351691 0.355442C-0.11723 0.824363 -0.11723 1.58589 0.351691 2.05481L4.30563 6.005L0.355442 9.95894C-0.113479 10.4279 -0.113479 11.1894 0.355442 11.6583C0.824363 12.1272 1.58589 12.1272 2.05481 11.6583L6.005 7.70437L9.95894 11.6546C10.4279 12.1235 11.1894 12.1235 11.6583 11.6546C12.1272 11.1856 12.1272 10.4241 11.6583 9.95519L7.70437 6.005L11.6546 2.05106Z" fill="black"/>
</svg>
